# Blender v2.93.1 OBJ File: 'low-poly-tree.blend'
# www.blender.org
mtllib tree.mtl
o Cylinder
v -0.130234 0.686969 -1.243984
v -0.130234 11.738871 -0.403091
v 1.038379 0.686969 -0.569285
v 0.310144 11.738871 -0.148839
v 1.038378 0.686969 0.780112
v 0.310144 11.738871 0.359666
v -0.130234 0.686969 1.454811
v -0.130234 11.738871 0.613918
v -1.298846 0.686969 0.780112
v -0.570611 11.738871 0.359665
v -1.298846 0.686969 -0.569285
v -0.570611 11.738871 -0.148839
v -0.130234 7.480255 -0.403091
v 0.310144 7.480255 -0.148839
v 0.310144 7.480255 0.359666
v -0.130234 7.480255 0.613918
v -0.570611 7.480255 0.359665
v -0.570611 7.480255 -0.148839
v 0.310144 3.201423 -0.148839
v 0.310144 3.201423 0.359666
v -0.130234 3.201423 0.613918
v -0.570611 3.201423 0.359665
v -0.570611 3.201423 -0.148839
v -0.130234 3.201423 -0.403091
v 0.310144 2.153615 -0.148839
v 0.310144 2.153615 0.359666
v -0.130234 2.153615 0.613918
v -0.570611 2.153615 0.359665
v -0.570611 2.153615 -0.148839
v -0.130234 2.153615 -0.403091
v 0.420833 1.359309 -0.212745
v 0.420833 1.359309 0.423572
v -0.130234 1.359309 0.741731
v -0.681301 1.359309 0.423572
v -0.681301 1.359309 -0.212745
v -0.130234 1.359309 -0.530904
vt 1.000000 1.000000
vt 0.833333 0.799747
vt 1.000000 0.799747
vt 0.833333 1.000000
vt 0.666667 0.799747
vt 0.666667 1.000000
vt 0.500000 0.799747
vt 0.500000 1.000000
vt 0.333333 0.799747
vt 0.250000 0.490000
vt 0.042154 0.130000
vt 0.457846 0.130000
vt 0.333333 1.000000
vt 0.166667 0.799747
vt 0.166667 1.000000
vt -0.000000 0.799747
vt 0.957846 0.370000
vt 0.750000 0.010000
vt 0.542154 0.370000
vt -0.000000 0.598542
vt 0.166667 0.598542
vt 0.333333 0.598542
vt 0.500000 0.598542
vt 0.666667 0.598542
vt 0.833333 0.598542
vt 1.000000 0.598542
vt 0.833333 0.549271
vt 1.000000 0.549271
vt 0.666667 0.549271
vt 0.500000 0.549271
vt 0.333333 0.549271
vt 0.166667 0.549271
vt -0.000000 0.549271
vt -0.000000 0.511920
vt 0.166667 0.511920
vt 0.333333 0.511920
vt 0.500000 0.511920
vt 0.666667 0.511920
vt 0.833333 0.511920
vt 1.000000 0.511920
vt 0.833333 0.500000
vt 1.000000 0.500000
vt 0.666667 0.500000
vt 0.500000 0.500000
vt 0.333333 0.500000
vt 0.166667 0.500000
vt -0.000000 0.500000
vt 0.457846 0.370000
vt 0.042154 0.370000
vt 0.250000 0.010000
vt -0.000000 1.000000
vt 0.750000 0.490000
vt 0.957846 0.130000
vt 0.542154 0.130000
vn 0.5000 0.0000 -0.8660
vn 1.0000 0.0000 0.0000
vn 0.5000 0.0000 0.8660
vn -0.5000 0.0000 0.8660
vn 0.0000 1.0000 0.0000
vn -1.0000 0.0000 0.0000
vn -0.5000 0.0000 -0.8660
vn 0.0000 -1.0000 -0.0000
vn -0.4952 0.1380 -0.8577
vn -0.9904 0.1380 0.0000
vn -0.4952 0.1380 0.8577
vn 0.4952 0.1380 0.8577
vn 0.9904 0.1380 0.0000
vn 0.4952 0.1380 -0.8577
vn 0.3682 0.6765 -0.6378
vn 0.7365 0.6765 0.0000
vn 0.3682 0.6765 0.6378
vn -0.3682 0.6765 0.6378
vn -0.7365 0.6765 0.0000
vn -0.3682 0.6765 -0.6378
usemtl Material
s off
f 2/1/1 14/2/1 13/3/1
f 4/4/2 15/5/2 14/2/2
f 6/6/3 16/7/3 15/5/3
f 8/8/4 17/9/4 16/7/4
f 2/10/5 10/11/5 6/12/5
f 10/13/6 18/14/6 17/9/6
f 12/15/7 13/16/7 18/14/7
f 3/17/8 7/18/8 11/19/8
f 18/14/7 24/20/7 23/21/7
f 17/9/6 23/21/6 22/22/6
f 16/7/4 22/22/4 21/23/4
f 15/5/3 21/23/3 20/24/3
f 14/2/2 20/24/2 19/25/2
f 13/3/1 19/25/1 24/26/1
f 24/26/1 25/27/1 30/28/1
f 19/25/2 26/29/2 25/27/2
f 20/24/3 27/30/3 26/29/3
f 21/23/4 28/31/4 27/30/4
f 22/22/6 29/32/6 28/31/6
f 23/21/7 30/33/7 29/32/7
f 29/32/9 36/34/9 35/35/9
f 28/31/10 35/35/10 34/36/10
f 33/37/11 28/31/11 34/36/11
f 32/38/12 27/30/12 33/37/12
f 31/39/13 26/29/13 32/38/13
f 36/40/14 25/27/14 31/39/14
f 36/40/15 3/41/15 1/42/15
f 31/39/16 5/43/16 3/41/16
f 32/38/17 7/44/17 5/43/17
f 33/37/18 9/45/18 7/44/18
f 34/36/19 11/46/19 9/45/19
f 35/35/20 1/47/20 11/46/20
f 2/1/1 4/4/1 14/2/1
f 4/4/2 6/6/2 15/5/2
f 6/6/3 8/8/3 16/7/3
f 8/8/4 10/13/4 17/9/4
f 6/12/5 4/48/5 2/10/5
f 2/10/5 12/49/5 10/11/5
f 10/11/5 8/50/5 6/12/5
f 10/13/6 12/15/6 18/14/6
f 12/15/7 2/51/7 13/16/7
f 11/19/8 1/52/8 3/17/8
f 3/17/8 5/53/8 7/18/8
f 7/18/8 9/54/8 11/19/8
f 18/14/7 13/16/7 24/20/7
f 17/9/6 18/14/6 23/21/6
f 16/7/4 17/9/4 22/22/4
f 15/5/3 16/7/3 21/23/3
f 14/2/2 15/5/2 20/24/2
f 13/3/1 14/2/1 19/25/1
f 24/26/1 19/25/1 25/27/1
f 19/25/2 20/24/2 26/29/2
f 20/24/3 21/23/3 27/30/3
f 21/23/4 22/22/4 28/31/4
f 22/22/6 23/21/6 29/32/6
f 23/21/7 24/20/7 30/33/7
f 29/32/9 30/33/9 36/34/9
f 28/31/10 29/32/10 35/35/10
f 33/37/11 27/30/11 28/31/11
f 32/38/12 26/29/12 27/30/12
f 31/39/13 25/27/13 26/29/13
f 36/40/14 30/28/14 25/27/14
f 36/40/15 31/39/15 3/41/15
f 31/39/16 32/38/16 5/43/16
f 32/38/17 33/37/17 7/44/17
f 33/37/18 34/36/18 9/45/18
f 34/36/19 35/35/19 11/46/19
f 35/35/20 36/34/20 1/47/20
o Cone
v -0.130234 11.302316 -1.288822
v 1.014886 11.302316 -0.591704
v 1.014886 11.302316 0.802531
v -0.130234 11.302316 1.499649
v -1.275353 11.302316 0.802531
v -1.275353 11.302316 -0.591704
v -0.130234 14.208694 0.105413
v -0.130234 9.581700 -2.568066
v 2.065559 9.581700 -1.231326
v 2.065559 9.581700 1.442153
v -0.130234 9.581700 2.778893
v -2.326027 9.581700 1.442153
v -2.326027 9.581700 -1.231326
vt 0.250000 0.490000
vt 0.250000 0.250000
vt 0.457846 0.370000
vt 0.457846 0.130000
vt 0.250000 0.010000
vt 0.042154 0.130000
vt 0.042154 0.370000
vt 0.042154 0.370000
vt 0.957846 0.370000
vt 0.750000 0.010000
vt 0.542154 0.370000
vt 0.250000 0.490000
vt 0.042154 0.130000
vt 0.250000 0.010000
vt 0.457846 0.130000
vt 0.457846 0.370000
vt 0.750000 0.490000
vt 0.957846 0.130000
vt 0.542154 0.130000
vn 0.4812 0.3792 -0.7904
vn 0.9304 0.3666 0.0000
vn 0.4812 0.3792 0.7904
vn -0.4812 0.3792 0.7904
vn -0.4390 0.5361 -0.7211
vn -0.9304 0.3666 0.0000
vn -0.4812 0.3792 -0.7904
vn 0.0000 -1.0000 0.0000
vn 0.4390 0.5361 -0.7211
vn -0.8535 0.5212 0.0000
vn -0.4390 0.5361 0.7211
vn 0.4390 0.5361 0.7211
vn 0.8535 0.5212 0.0000
usemtl Material.001
s off
f 37/55/21 43/56/21 38/57/21
f 38/57/22 43/56/22 39/58/22
f 39/58/23 43/56/23 40/59/23
f 40/59/24 43/56/24 41/60/24
f 37/55/25 49/61/25 42/62/25
f 41/60/26 43/56/26 42/62/26
f 42/62/27 43/56/27 37/55/27
f 45/63/28 47/64/28 49/65/28
f 38/57/29 44/66/29 37/55/29
f 42/62/30 48/67/30 41/60/30
f 40/59/31 48/67/31 47/68/31
f 39/58/32 47/68/32 46/69/32
f 39/58/33 45/70/33 38/57/33
f 37/55/25 44/66/25 49/61/25
f 49/65/28 44/71/28 45/63/28
f 45/63/28 46/72/28 47/64/28
f 47/64/28 48/73/28 49/65/28
f 38/57/29 45/70/29 44/66/29
f 42/62/30 49/61/30 48/67/30
f 40/59/31 41/60/31 48/67/31
f 39/58/32 40/59/32 47/68/32
f 39/58/33 46/69/33 45/70/33
o Cone.001_Cone
v -0.022837 9.418344 -1.595747
v 1.304622 9.447823 -0.782109
v 1.304622 9.337910 0.833680
v -0.022837 9.198519 1.635831
v -1.350296 9.169041 0.822193
v -1.350296 9.278954 -0.793596
v -0.237631 12.669828 0.248699
v 0.104324 7.529200 -3.213639
v 2.649757 7.585724 -1.653469
v 2.649757 7.374963 1.444844
v 0.104324 7.107678 2.982986
v -2.441109 7.051154 1.422817
v -2.441109 7.261915 -1.675496
vt 0.250000 0.490000
vt 0.250000 0.250000
vt 0.457846 0.370000
vt 0.457846 0.130000
vt 0.250000 0.010000
vt 0.042154 0.130000
vt 0.042154 0.370000
vt 0.042154 0.370000
vt 0.957846 0.370000
vt 0.750000 0.010000
vt 0.542154 0.370000
vt 0.250000 0.490000
vt 0.042154 0.130000
vt 0.250000 0.010000
vt 0.457846 0.130000
vt 0.457846 0.370000
vt 0.750000 0.490000
vt 0.957846 0.130000
vt 0.542154 0.130000
vn 0.4561 0.4617 -0.7608
vn 0.9052 0.4240 0.0288
vn 0.4561 0.3544 0.8163
vn -0.5043 0.2933 0.8122
vn -0.4722 0.5548 -0.6850
vn -0.9518 0.3059 0.0208
vn -0.5043 0.4006 -0.7650
vn 0.0636 -0.9957 -0.0677
vn 0.4040 0.6106 -0.6812
vn -0.8849 0.4647 0.0316
vn -0.4722 0.4570 0.7538
vn 0.4040 0.5127 0.7576
vn 0.8186 0.5731 0.0390
usemtl Material.001
s off
f 50/74/34 56/75/34 51/76/34
f 51/76/35 56/75/35 52/77/35
f 52/77/36 56/75/36 53/78/36
f 53/78/37 56/75/37 54/79/37
f 50/74/38 62/80/38 55/81/38
f 54/79/39 56/75/39 55/81/39
f 55/81/40 56/75/40 50/74/40
f 58/82/41 60/83/41 62/84/41
f 51/76/42 57/85/42 50/74/42
f 55/81/43 61/86/43 54/79/43
f 53/78/44 61/86/44 60/87/44
f 52/77/45 60/87/45 59/88/45
f 52/77/46 58/89/46 51/76/46
f 50/74/38 57/85/38 62/80/38
f 62/84/41 57/90/41 58/82/41
f 58/82/41 59/91/41 60/83/41
f 60/83/41 61/92/41 62/84/41
f 51/76/42 58/89/42 57/85/42
f 55/81/43 62/80/43 61/86/43
f 53/78/44 54/79/44 61/86/44
f 52/77/45 53/78/45 60/87/45
f 52/77/46 59/88/46 58/89/46
o Cone.002_Cone
v -0.449100 7.450137 -1.543451
v 1.022831 7.401970 -0.971282
v 1.309450 7.338843 0.645439
v 0.124139 7.323883 1.689992
v -1.347792 7.372050 1.117823
v -1.634412 7.435177 -0.498898
v -0.097987 10.809466 0.195470
v -0.750261 5.481916 -3.099175
v 2.072201 5.389555 -2.002028
v 2.621800 5.268508 1.098073
v 0.348938 5.239822 3.101027
v -2.473524 5.332183 2.003880
v -3.023123 5.453230 -1.096220
vt 0.250000 0.490000
vt 0.250000 0.250000
vt 0.457846 0.370000
vt 0.457846 0.130000
vt 0.250000 0.010000
vt 0.042154 0.130000
vt 0.042154 0.370000
vt 0.042154 0.370000
vt 0.957846 0.370000
vt 0.750000 0.010000
vt 0.542154 0.370000
vt 0.250000 0.490000
vt 0.042154 0.130000
vt 0.250000 0.010000
vt 0.457846 0.130000
vt 0.457846 0.370000
vt 0.750000 0.490000
vt 0.957846 0.130000
vt 0.542154 0.130000
vn 0.3430 0.4033 -0.8484
vn 0.9229 0.3548 -0.1498
vn 0.6187 0.3426 0.7070
vn -0.3287 0.3544 0.8754
vn -0.5478 0.5688 -0.6135
vn -0.9091 0.3777 0.1759
vn -0.6044 0.4151 -0.6799
vn -0.0188 -0.9992 -0.0357
vn 0.3165 0.5580 -0.7672
vn -0.8304 0.5312 0.1680
vn -0.2963 0.5134 0.8054
vn 0.5680 0.5026 0.6518
vn 0.8500 0.5102 -0.1308
usemtl Material.001
s off
f 63/93/47 69/94/47 64/95/47
f 64/95/48 69/94/48 65/96/48
f 65/96/49 69/94/49 66/97/49
f 66/97/50 69/94/50 67/98/50
f 63/93/51 75/99/51 68/100/51
f 67/98/52 69/94/52 68/100/52
f 68/100/53 69/94/53 63/93/53
f 71/101/54 73/102/54 75/103/54
f 64/95/55 70/104/55 63/93/55
f 68/100/56 74/105/56 67/98/56
f 66/97/57 74/105/57 73/106/57
f 65/96/58 73/106/58 72/107/58
f 65/96/59 71/108/59 64/95/59
f 63/93/51 70/104/51 75/99/51
f 75/103/54 70/109/54 71/101/54
f 71/101/54 72/110/54 73/102/54
f 73/102/54 74/111/54 75/103/54
f 64/95/55 71/108/55 70/104/55
f 68/100/56 75/99/56 74/105/56
f 66/97/57 67/98/57 74/105/57
f 65/96/58 66/97/58 73/106/58
f 65/96/59 72/107/59 71/108/59
o Cone.003_Cone
v -0.192002 5.684172 -1.485533
v 1.213429 5.678815 -0.628065
v 1.213429 5.765324 1.081951
v -0.192002 5.857190 1.934500
v -1.597433 5.862547 1.077032
v -1.597433 5.776038 -0.632984
v -0.068466 9.333188 0.044257
v -0.265137 3.495745 -2.947816
v 2.429810 3.485473 -1.303602
v 2.429809 3.651356 1.975394
v -0.265138 3.827512 3.610175
v -2.960084 3.837784 1.965962
v -2.960084 3.671900 -1.313033
vt 0.250000 0.490000
vt 0.250000 0.250000
vt 0.457846 0.370000
vt 0.457846 0.130000
vt 0.250000 0.010000
vt 0.042154 0.130000
vt 0.042154 0.370000
vt 0.042154 0.370000
vt 0.957846 0.370000
vt 0.750000 0.010000
vt 0.542154 0.370000
vt 0.250000 0.490000
vt 0.042154 0.130000
vt 0.250000 0.010000
vt 0.457846 0.130000
vt 0.457846 0.370000
vt 0.750000 0.490000
vt 0.957846 0.130000
vt 0.542154 0.130000
vn 0.4940 0.3219 -0.8077
vn 0.9425 0.3337 -0.0169
vn 0.4940 0.4018 0.7711
vn -0.4678 0.4350 0.7694
vn -0.4201 0.5138 -0.7480
vn -0.9171 0.3980 -0.0201
vn -0.4678 0.3551 -0.8094
vn -0.0346 -0.9981 0.0505
vn 0.4573 0.4835 -0.7464
vn -0.8349 0.5497 -0.0278
vn -0.4201 0.5867 0.6923
vn 0.4573 0.5563 0.6938
vn 0.8710 0.4907 -0.0248
usemtl Material.001
s off
f 76/112/60 82/113/60 77/114/60
f 77/114/61 82/113/61 78/115/61
f 78/115/62 82/113/62 79/116/62
f 79/116/63 82/113/63 80/117/63
f 76/112/64 88/118/64 81/119/64
f 80/117/65 82/113/65 81/119/65
f 81/119/66 82/113/66 76/112/66
f 84/120/67 86/121/67 88/122/67
f 77/114/68 83/123/68 76/112/68
f 81/119/69 87/124/69 80/117/69
f 79/116/70 87/124/70 86/125/70
f 78/115/71 86/125/71 85/126/71
f 78/115/72 84/127/72 77/114/72
f 76/112/64 83/123/64 88/118/64
f 88/122/67 83/128/67 84/120/67
f 84/120/67 85/129/67 86/121/67
f 86/121/67 87/130/67 88/122/67
f 77/114/68 84/127/68 83/123/68
f 81/119/69 88/118/69 87/124/69
f 79/116/70 80/117/70 87/124/70
f 78/115/71 79/116/71 86/125/71
f 78/115/72 85/126/72 84/127/72
